<?xml version="1.0" encoding="UTF-8" standalone="no"?>
<!-- Created with Inkscape (http://www.inkscape.org/) -->

<svg
   xmlns:dc="http://purl.org/dc/elements/1.1/"
   xmlns:cc="http://creativecommons.org/ns#"
   xmlns:rdf="http://www.w3.org/1999/02/22-rdf-syntax-ns#"
   xmlns:svg="http://www.w3.org/2000/svg"
   xmlns="http://www.w3.org/2000/svg"
   xmlns:sodipodi="http://sodipodi.sourceforge.net/DTD/sodipodi-0.dtd"
   xmlns:inkscape="http://www.inkscape.org/namespaces/inkscape"
   id="svg2"
   version="1.1"
   inkscape:version="0.91 r13725"
   xml:space="preserve"
   width="810"
   height="455.66592"
   viewBox="0 0 810 455.66592"
   sodipodi:docname="publicdomainq-salad_with_eggs_and_tomatoes.svg"
   inkscape:export-filename="/media/sdb1/_GRAFIKA/Publicdomainq/publicdomainq-salad_with_eggs_and_tomatoes.png"
   inkscape:export-xdpi="90.067467"
   inkscape:export-ydpi="90.067467"><title
     id="title7696">Salad with fresh tomatoes, cucumber and eggs</title><metadata
     id="metadata8"><rdf:RDF><cc:Work
         rdf:about=""><dc:format>image/svg+xml</dc:format><dc:type
           rdf:resource="http://purl.org/dc/dcmitype/StillImage" /><dc:title>Salad with fresh tomatoes, cucumber and eggs</dc:title><cc:license
           rdf:resource="http://creativecommons.org/publicdomain/zero/1.0/" /><dc:subject><rdf:Bag><rdf:li>salad</rdf:li><rdf:li>fresh</rdf:li><rdf:li>tomatoes</rdf:li><rdf:li>cucumber</rdf:li><rdf:li>eggs</rdf:li><rdf:li>fork</rdf:li><rdf:li>spoon</rdf:li><rdf:li>bowl</rdf:li><rdf:li>vegetables</rdf:li><rdf:li>food</rdf:li><rdf:li>eat</rdf:li><rdf:li>meal</rdf:li></rdf:Bag></dc:subject><dc:description>This image was adapted from a picture posted to publicdomainq.net. All of the images on these sites are in the public domain i.e. CC0. This site is only in Japanese but can be easily navigated with Google Translate.</dc:description></cc:Work><cc:License
         rdf:about="http://creativecommons.org/publicdomain/zero/1.0/"><cc:permits
           rdf:resource="http://creativecommons.org/ns#Reproduction" /><cc:permits
           rdf:resource="http://creativecommons.org/ns#Distribution" /><cc:permits
           rdf:resource="http://creativecommons.org/ns#DerivativeWorks" /></cc:License></rdf:RDF></metadata><defs
     id="defs6"><clipPath
       clipPathUnits="userSpaceOnUse"
       id="clipPath22"><path
         d="m 4811.86,3201.44 c 0,-309.96 -724.91,-561.13 -1618.66,-561.13 -894.14,0 -1618.55,251.17 -1618.55,561.13 0,309.77 724.41,591.26 1618.55,591.26 893.75,0 1618.66,-281.49 1618.66,-591.26 z"
         id="path24"
         inkscape:connector-curvature="0" /></clipPath><linearGradient
       x1="0"
       y1="0"
       x2="1"
       y2="0"
       gradientUnits="userSpaceOnUse"
       gradientTransform="matrix(3237.21,0,0,-3237.21,1574.65,3216.5)"
       spreadMethod="pad"
       id="linearGradient26"><stop
         style="stop-opacity:1;stop-color:#c8c7c7"
         offset="0"
         id="stop28" /><stop
         style="stop-opacity:1;stop-color:#ffffff"
         offset="0.29822348"
         id="stop30" /><stop
         style="stop-opacity:1;stop-color:#ffffff"
         offset="1"
         id="stop32" /></linearGradient><clipPath
       clipPathUnits="userSpaceOnUse"
       id="clipPath44"><path
         d="m 4053.75,3494.02 c -46.96,-172.36 -221.87,-274.81 -390.53,-228.86 -168.55,46.1 -267.09,223.19 -220.31,395.61 47.17,172.31 221.88,274.85 390.63,228.81 168.94,-45.85 267.57,-223.1 220.21,-395.56 z"
         id="path46"
         inkscape:connector-curvature="0" /></clipPath><radialGradient
       fx="0"
       fy="0"
       cx="0"
       cy="0"
       r="1"
       gradientUnits="userSpaceOnUse"
       gradientTransform="matrix(337.341,-92.037,-78.3993,-287.371,3748.33,3577.38)"
       spreadMethod="pad"
       id="radialGradient48"><stop
         style="stop-opacity:1;stop-color:#fab10b"
         offset="0"
         id="stop50" /><stop
         style="stop-opacity:1;stop-color:#fab10b"
         offset="0.0666667"
         id="stop52" /><stop
         style="stop-opacity:1;stop-color:#f57e13"
         offset="1"
         id="stop54" /></radialGradient><clipPath
       clipPathUnits="userSpaceOnUse"
       id="clipPath22-3"><path
         d="m 4811.86,3201.44 c 0,-309.96 -724.91,-561.13 -1618.66,-561.13 -894.14,0 -1618.55,251.17 -1618.55,561.13 0,309.77 724.41,591.26 1618.55,591.26 893.75,0 1618.66,-281.49 1618.66,-591.26 z"
         id="path24-6"
         inkscape:connector-curvature="0" /></clipPath><clipPath
       clipPathUnits="userSpaceOnUse"
       id="clipPath44-5"><path
         d="m 4053.75,3494.02 c -46.96,-172.36 -221.87,-274.81 -390.53,-228.86 -168.55,46.1 -267.09,223.19 -220.31,395.61 47.17,172.31 221.88,274.85 390.63,228.81 168.94,-45.85 267.57,-223.1 220.21,-395.56 z"
         id="path46-6"
         inkscape:connector-curvature="0" /></clipPath><radialGradient
       fx="0"
       fy="0"
       cx="0"
       cy="0"
       r="1"
       gradientUnits="userSpaceOnUse"
       gradientTransform="matrix(337.341,-92.037,-78.3993,-287.371,3748.33,3577.38)"
       spreadMethod="pad"
       id="radialGradient48-2"><stop
         style="stop-opacity:1;stop-color:#fab10b"
         offset="0"
         id="stop50-9" /><stop
         style="stop-opacity:1;stop-color:#fab10b"
         offset="0.0666667"
         id="stop52-1" /><stop
         style="stop-opacity:1;stop-color:#f57e13"
         offset="1"
         id="stop54-2" /></radialGradient></defs><sodipodi:namedview
     pagecolor="#ffffff"
     bordercolor="#666666"
     borderopacity="1"
     objecttolerance="10"
     gridtolerance="10"
     guidetolerance="10"
     inkscape:pageopacity="0"
     inkscape:pageshadow="2"
     inkscape:window-width="1920"
     inkscape:window-height="1125"
     id="namedview4"
     showgrid="false"
     inkscape:zoom="1.1493507"
     inkscape:cx="442.65648"
     inkscape:cy="211.96652"
     inkscape:window-x="0"
     inkscape:window-y="0"
     inkscape:window-maximized="1"
     inkscape:current-layer="svg2"
     fit-margin-top="5"
     fit-margin-left="5"
     fit-margin-bottom="5"
     fit-margin-right="5" /><g
     id="g12"
     transform="matrix(0.14898619,0,0,-0.14898619,-59.559115,691.0775)"><path
       d="m 3197.4,3144.12 c -165.61,0 -1616.01,0 -1619.04,0 0.39,0 90.53,-631.69 109.37,-693.31 253.23,-831.01 1091.61,-815.38 1509.67,-819.53 418.17,4.15 1256.46,-11.48 1509.77,819.53 18.85,61.62 108.79,693.31 109.67,693.31 -3.13,0 -1453.52,0 -1619.44,0"
       style="fill:#ffffff;fill-opacity:1;fill-rule:nonzero;stroke:none"
       id="path14"
       inkscape:connector-curvature="0" /><path
       d="m 3197.4,3144.12 0,17.63 c -165.61,0 -1616.01,0 -1619.04,0 -6.23,0 -12.07,-3.35 -15.23,-8.74 -3.15,-5.4 -3.2,-12.13 -0.13,-17.56 l 15.33,8.65 -16.75,-5.41 c 0.23,-0.58 0.3,-1.15 1.42,-3.24 l 15.33,8.65 -16.75,-5.41 16.56,5.35 -16.97,-3.85 c 0.07,-0.27 0.1,-0.52 0.41,-1.5 l 16.56,5.35 -16.97,-3.85 13.21,3 -13.36,-2.27 0.15,-0.73 13.21,3 -13.36,-2.27 c 0.07,-0.38 0.59,-3.83 1.36,-9.06 5.86,-39.83 28.48,-196.52 51.82,-350.38 11.68,-76.95 23.52,-153.19 33.56,-213.86 5.03,-30.34 9.6,-56.78 13.47,-77.56 1.94,-10.39 3.72,-19.35 5.31,-26.75 1.59,-7.42 2.96,-13.14 4.34,-17.66 64.05,-210.34 165.63,-368.1 288.59,-485.63 184.48,-176.39 416.08,-261.99 640.07,-304.06 224.01,-42.05 441.09,-40.74 597.69,-42.31 l 0.35,0 c 104.39,1.04 235.74,0.82 378.03,13 213.39,18.31 451.69,64.38 661.61,185.49 104.92,60.55 202.67,139.94 286.14,243.76 83.46,103.81 152.59,232 200.68,389.76 1.47,4.86 2.95,11.16 4.71,19.44 6.5,30.8 16.2,88 27.22,157.09 16.53,103.56 35.95,233.38 51.32,337.34 7.68,51.98 14.35,97.49 19.14,129.99 2.39,16.25 4.32,29.25 5.65,38.15 0.67,4.45 1.21,7.89 1.56,10.14 0.17,1.12 0.31,1.96 0.38,2.39 l 0.04,0.22 -0.88,0.16 0.88,-0.18 0,0.02 -0.88,0.16 0.88,-0.18 -13.27,2.63 13.11,-3.33 0.16,0.7 -13.27,2.63 13.11,-3.33 -16.57,4.21 16.05,-5.88 c 0.37,1.04 0.43,1.37 0.52,1.67 l -16.57,4.21 16.05,-5.88 -16.48,6.04 15.1,-8.94 c 0.95,1.65 1.15,2.33 1.38,2.9 l -16.48,6.04 15.1,-8.94 -15.16,8.97 12.2,-12.71 c 1.79,1.77 2.44,2.9 2.96,3.74 l -15.16,8.97 12.2,-12.71 c 5.18,4.98 6.84,12.64 4.16,19.3 -2.69,6.67 -9.18,11.06 -16.36,11.06 -3.13,0 -1453.52,0 -1619.44,0 l 0,-35.27 c 165.92,0 1616.31,0 1619.44,0 4.64,0 9.18,1.88 12.46,5.17 3.29,3.28 5.17,7.82 5.17,12.47 0,4.64 -1.88,9.18 -5.17,12.47 -3.28,3.28 -7.82,5.16 -12.46,5.16 -4.21,0 -7.52,-1.49 -9.5,-2.77 -1.52,-0.97 -2.73,-2.03 -3.92,-3.41 -1.52,-1.83 -1.97,-2.83 -2.38,-3.6 -0.7,-1.46 -0.84,-2.02 -1.02,-2.51 l -0.39,-1.49 c -0.23,-0.99 -0.27,-1.27 -0.38,-1.88 -0.36,-2.11 -0.96,-6.06 -1.87,-12.11 -6.79,-44.99 -29.37,-200.93 -52.42,-352.74 -11.53,-75.89 -23.17,-150.74 -32.99,-210.03 -4.91,-29.64 -9.36,-55.41 -13.11,-75.4 -1.87,-9.99 -3.56,-18.53 -5.03,-25.34 -1.45,-6.77 -2.73,-11.92 -3.53,-14.51 -62.57,-205.15 -160.75,-357.07 -279.28,-470.45 -177.75,-170 -402.25,-253.58 -622.2,-294.88 -219.92,-41.32 -434.61,-40.18 -591.59,-41.72 l 0.17,-17.63 0.18,17.63 c -104.66,1.04 -234.9,0.86 -375.31,12.88 -210.66,18.01 -443.89,63.6 -647.01,180.89 -101.59,58.65 -195.72,135.15 -276.26,235.32 -80.52,100.18 -147.5,224.09 -194.39,377.95 -0.89,2.85 -2.32,8.7 -3.95,16.45 -6.21,29.29 -15.95,86.55 -26.93,155.35 -16.5,103.29 -35.92,233.04 -51.23,336.93 -7.66,51.95 -14.3,97.44 -19.04,129.95 -2.37,16.26 -4.26,29.26 -5.58,38.22 -0.66,4.48 -1.17,7.95 -1.52,10.32 -0.18,1.19 -0.32,2.1 -0.41,2.77 l -0.16,0.92 -0.12,0.64 -0.22,0.96 c -0.09,0.33 -0.16,0.68 -0.54,1.74 -0.23,0.57 -0.43,1.25 -1.37,2.91 l -15.18,-8.99 0,-17.64 c 3.03,0 1453.41,0 1619.04,0 l 0,17.64"
       style="fill:#918f90;fill-opacity:1;fill-rule:nonzero;stroke:none"
       id="path16"
       inkscape:connector-curvature="0" /><g
       id="g18"><g
         id="g20"
         clip-path="url(#clipPath22-3)"><path
           d="m 4811.86,3201.44 c 0,-309.96 -724.91,-561.13 -1618.66,-561.13 -894.14,0 -1618.55,251.17 -1618.55,561.13 0,309.77 724.41,591.26 1618.55,591.26 893.75,0 1618.66,-281.49 1618.66,-591.26"
           style="fill:url(#linearGradient26);fill-opacity:1;fill-rule:nonzero;stroke:none"
           id="path34"
           inkscape:connector-curvature="0" /></g></g><path
       d="m 4811.86,3201.44 -7.82,0 c -0.02,-37.2 -10.84,-73.58 -31.81,-109.13 -36.67,-62.18 -104.71,-121.52 -198.64,-175.07 -140.86,-80.38 -339.64,-147.77 -576.3,-194.93 -236.7,-47.18 -511.31,-74.18 -804.09,-74.18 -446.32,-0.02 -850.29,62.74 -1142.02,163.9 -145.85,50.55 -263.61,110.74 -344.41,177.02 -40.41,33.12 -71.56,67.73 -92.51,103.26 -20.96,35.55 -31.78,71.93 -31.79,109.13 0,37.18 10.83,74.05 31.82,110.43 36.7,63.65 104.75,125.5 198.66,182.01 140.84,84.82 339.53,157.68 576.16,209.2 236.64,51.54 511.25,81.8 804.09,81.8 446.04,0.02 849.97,-70.29 1141.76,-178.98 145.88,-54.31 263.7,-118.25 344.59,-187.34 40.45,-34.53 71.65,-70.32 92.65,-106.69 21,-36.38 31.84,-73.25 31.84,-110.43 l 15.64,0 c 0,40.26 -11.82,79.95 -33.95,118.25 -38.77,67.06 -108.87,130.17 -204.23,187.59 -143.05,86.07 -343.16,159.27 -581.03,211.09 -237.86,51.79 -513.47,82.15 -807.27,82.15 -447.9,-0.02 -853.28,-70.45 -1147.31,-179.96 -147.01,-54.78 -266.24,-119.29 -349.16,-190.11 -41.46,-35.41 -73.85,-72.44 -95.98,-110.76 -22.12,-38.3 -33.93,-77.99 -33.92,-118.25 -0.01,-40.28 11.81,-79.56 33.96,-117.08 38.8,-65.68 108.93,-126.27 204.25,-180.7 143.02,-81.6 343.05,-149.27 580.88,-196.69 237.82,-47.4 513.41,-74.48 807.28,-74.48 447.62,0.01 852.96,62.85 1147.04,164.76 147.06,50.99 266.33,111.7 349.34,179.7 41.5,34.01 73.96,69.88 96.12,107.41 22.16,37.52 33.98,76.8 33.98,117.08 l -7.82,0"
       style="fill:#918f90;fill-opacity:1;fill-rule:nonzero;stroke:none"
       id="path36"
       inkscape:connector-curvature="0" /><path
       d="m 4156.39,3467.75 c -84.09,-274.9 -332.72,-442.73 -555.67,-374.9 -223.14,68.01 -335.84,346.14 -251.76,621.14 83.79,275.1 332.52,442.97 555.58,374.71 222.75,-67.92 335.64,-345.95 251.85,-620.95"
       style="fill:#ffffff;fill-opacity:1;fill-rule:nonzero;stroke:none"
       id="path38"
       inkscape:connector-curvature="0" /><g
       id="g40"><g
         id="g42"
         clip-path="url(#clipPath44-5)"><path
           d="m 4053.75,3494.02 c -46.96,-172.36 -221.87,-274.81 -390.53,-228.86 -168.55,46.1 -267.09,223.19 -220.31,395.61 47.17,172.31 221.88,274.85 390.63,228.81 168.94,-45.85 267.57,-223.1 220.21,-395.56"
           style="fill:url(#radialGradient48-2);fill-opacity:1;fill-rule:nonzero;stroke:none"
           id="path56"
           inkscape:connector-curvature="0" /></g></g><path
       d="m 3921.91,4182.06 c 11.23,-7.28 12.22,114.79 3.81,131.05 -20.9,42.48 -66.7,66.9 -108.4,85.11 -51.46,22.85 -115.23,18.85 -164.06,40.82 -54.97,24.85 -45.6,63.87 -90.92,103.47 -32.52,28.71 -101.36,49.17 -143.94,53.46 -102.54,10.06 -189.16,-32.03 -253.02,-98.83 -129.21,185.36 -307.33,97.27 -451.77,-8 -25,122.31 -243.25,129.2 -339.73,96.43 -120.23,-40.97 -175.79,-181.74 -307.92,-208.84 -103.13,-21.14 -190.82,24.81 -294.63,-29.78 -25.97,-13.67 -218.65,-206.15 -188.58,-220.02 -356.83,163.28 -143.75,-223.63 -168.05,-378.86 -276.66,-51.12 -72.07,-500.54 128.6,-537.21 -6.92,1.57 -22.75,-11.96 -27.05,-16.6 -12.21,-11.72 -13.96,-20.31 -0.87,-34.18 12.5,-13.42 30.95,-19.33 43.35,-33.59 9.47,-11.13 13.88,-24.27 20.02,-37.11 18.36,-38.72 55.18,-60.69 88.88,-85.16 38.37,-27.93 77.43,-54.68 118.25,-80.07 395.51,-250.1 953.71,-283.84 1407.32,-283.84 63.77,0 132.72,0.44 204.89,2.15 52.93,16.16 105.86,34.13 160.45,51.36 69.72,22.32 112.98,79.15 164.45,95.32 66.4,20.6 172.96,-27.01 227.55,41.21 18.44,23.34 48.72,138.57 55.36,155.91 0.78,2.49 46.19,47.36 56.35,72.7 15.63,38.92 -11.33,95.31 -0.49,135.84 17.48,63.43 69.24,96.92 71.1,167.29 2.34,81.64 -88.19,124.95 -97.96,198.09 245.41,98.29 97.46,192.38 -13.67,323.83 244.15,-11.62 -30.96,253.42 -99.32,298.05"
       style="fill:#7bcb34;fill-opacity:1;fill-rule:nonzero;stroke:none"
       id="path58"
       inkscape:connector-curvature="0" /><path
       d="m 4586.76,4076.2 c 61.72,63.42 27.35,130.42 -34.38,176.27 -89.74,66.94 -176.27,22.46 -279,33.44 -29.88,306.64 -451.95,133.35 -601.86,55.23 -58,-30.28 -60.84,-29.84 -131.05,-13.33 -54.79,12.84 -108.5,25.39 -165.14,23.14 -111.42,-4.29 -276.95,-11.28 -252.83,-157.27 -106.45,28.02 -173.24,139.6 -298.05,157.27 -121.77,17.09 -391.4,0.3 -423.24,-144.14 -230.57,54.45 -392.38,-6.64 -499.12,-225.88 -351.55,153.96 -142.09,-210.69 -165.92,-356.78 -272.36,-48.25 -70.79,-472.07 127.05,-506.25 l -41.59,-26.71 c -46.59,-79.1 33.88,-184.18 96.38,-231.4 32.71,-15.58 66.12,-29.69 100.49,-42.97 19.63,-5.42 37.89,-10.98 53.61,-20.31 357.32,-120.31 746,-156.2 1121.09,-156.2 252.25,0 521.68,13.43 781.16,62.6 12.02,7.52 24.02,13.52 36.52,17.33 19.82,5.86 43.16,5.86 67.58,4.78 155.56,36.19 294.43,91.46 440.92,153.47 176.07,74.32 220.21,199.71 324.02,336.18 60.94,80.18 201.76,249.61 44.53,312.21 152.45,51.51 109.68,270.51 -56.54,241.36 65.13,75.68 91.31,162.11 11.13,243.06 -68.56,69.34 -165.82,60.01 -255.76,64.9"
       style="fill:#4ea838;fill-opacity:1;fill-rule:nonzero;stroke:none"
       id="path60"
       inkscape:connector-curvature="0" /><path
       d="m 4805.61,3156.91 c -137.8,-252.15 -415.63,-365.72 -620.12,-253.91 -204.69,111.97 -258.2,407.28 -120.22,659.48 137.89,252.19 415.63,365.86 620.41,253.66 204.11,-111.82 258.11,-406.98 119.93,-659.23"
       style="fill:#ffffff;fill-opacity:1;fill-rule:nonzero;stroke:none"
       id="path62"
       inkscape:connector-curvature="0" /><path
       d="m 4710.79,3203.54 c -81.16,-159.23 -273.45,-224.07 -429.11,-144.58 -155.66,79.44 -216.11,272.85 -135.25,431.98 81.45,159.38 273.43,224.07 429.2,144.58 155.95,-79.25 216.3,-272.75 135.16,-431.98"
       style="fill:#f8a30d;fill-opacity:1;fill-rule:nonzero;stroke:none"
       id="path64"
       inkscape:connector-curvature="0" /><path
       d="m 3096.82,3370.29 c -142.19,-50.69 -326.66,173.05 -386.92,286.57 -76.66,144.97 -119.63,326.42 -116.11,493.8 3.42,183.98 87.41,533.4 292.48,384.18 193.55,-141.31 345.31,-350.49 379,-599.71 18.75,-139.3 -9.07,-508.05 -168.45,-564.84"
       style="fill:#3d8a3d;fill-opacity:1;fill-rule:nonzero;stroke:none"
       id="path66"
       inkscape:connector-curvature="0" /><path
       d="m 3048.57,3494.6 c -103.51,-15.72 -309.96,155.42 -351.85,234.72 -53.61,101.08 -71.49,182.62 -69.04,299.61 2.53,128.27 60.05,353.61 189.74,364.94 101.56,8.74 190.33,-51.95 256.54,-129.15 94.83,-110.59 146.68,-255.32 150.3,-406.3 2.35,-102.54 -58.5,-345.94 -175.69,-363.82"
       style="fill:#c4e676;fill-opacity:1;fill-rule:nonzero;stroke:none"
       id="path68"
       inkscape:connector-curvature="0" /><path
       d="m 3736.66,3859.59 c 0,0 -101.66,-56.25 -159.96,-65.86 -5.86,-39.16 1.46,-89.99 16.89,-141.22 -105.76,16.66 -174.12,67.24 -174.12,67.24 0,0 -332.22,70.8 -69.63,-46.29 119.14,-53.27 217.39,-85.25 271.98,-80.22 29.98,-77.25 61.91,-127.1 113.38,-153.13 15.52,-7.81 202.84,76.22 199.12,122.37 -3.81,53.51 -234.18,208.78 -197.66,297.11"
       style="fill:#7db934;fill-opacity:1;fill-rule:nonzero;stroke:none"
       id="path70"
       inkscape:connector-curvature="0" /><path
       d="m 3925.23,4092.16 c 40.34,2.88 92.78,-33.88 87.02,-80.76 -4.59,-38.23 -37.8,-55.96 -68.75,-65.48 -42.09,-12.59 -30.67,-43.26 -58.89,-62.5 -23.34,-16.31 -54.98,-11.33 -81.15,-28.61 -45.51,-30.22 -57.33,-91.36 -107.33,-119.04 -76.27,-41.75 -163.08,-16.85 -241.89,-61.87 -71.19,-40.53 -122.85,-55.08 -212.4,-31.2 -23.83,6.45 -40.23,20.95 -62.3,29.79 -22.37,8.83 -53.62,2.63 -70.03,24.65 -19.24,26.03 5.28,45.37 15.53,65.38 -18.65,4.35 -43.95,4.69 -60.16,16.66 -29.77,22.26 -12.5,33.44 -8.4,60.64 4.69,32.47 1.66,24.02 -29.98,40.19 -15.12,7.37 -34.37,16.69 -46.29,29.93 -14.35,16.79 -45.1,83.79 -34.85,103.41 9.66,19.05 34.18,21.24 53.02,20.61 -27.83,0.98 3.51,140.82 65.14,103.96 -18.16,10.84 -40.43,44.58 -27.35,69.77 11.23,21.88 41.51,20.56 60.65,24.66 -38.37,17.09 -27.74,76.32 -8.89,105.27 7.03,10.84 98.53,68.95 101.56,44.53 -8.88,68.41 58.01,158.55 116.31,90.58 -11.42,13.53 32.03,47.95 40.53,51.27 24.51,9.37 49.12,-0.78 68.85,-16.11 9.08,45.02 48.63,75.34 91.11,76.7 47.75,1.62 58.2,-17.77 72.46,-59.57 20.8,26.23 77.73,46 111.33,31.65 60.35,-25.83 33.59,-81.74 37.89,-129.16 37.01,15.34 81.93,28.28 122.75,20.66 15.82,-3.08 35.26,-7.62 43.46,-24.12 4.88,-9.08 3.12,-62.36 -10.84,-61.04 -7.03,0.74 -8.5,1.03 -4.1,1.32 66.5,4.69 51.07,-86.86 21.39,-115.87 -6.45,-6.3 33.5,-24.12 37.41,-26.76 20.98,-13.28 43.25,-22.85 49.6,-51.7 7.81,-35.55 -32.23,-66.9 -62.41,-77.84"
       style="fill:#3d8a3d;fill-opacity:1;fill-rule:nonzero;stroke:none"
       id="path72"
       inkscape:connector-curvature="0" /><path
       d="m 2393.01,2767.51 c -125.3,-83.94 -358.79,88.23 -445.02,183.54 -109.67,121.58 -195.7,287.45 -233.2,450.39 -41.31,179.4 -45.5,538.48 189.64,443.8 222.56,-89.65 420.9,-255.13 514.07,-488.67 52.34,-130.76 115.63,-495.12 -25.49,-589.06"
       style="fill:#3d8a3d;fill-opacity:1;fill-rule:nonzero;stroke:none"
       id="path74"
       inkscape:connector-curvature="0" /><path
       d="m 2315.96,2876.44 c -96.49,-40.62 -338.28,74.85 -398.54,141.5 -76.46,85.06 -113.87,159.62 -140.13,273.64 -28.62,125.29 -27.74,357.81 94.82,400.39 96.48,33.35 197.56,-4.05 280.47,-62.84 118.94,-83.84 204.49,-211.62 244.82,-357.04 27.35,-98.92 27.74,-349.95 -81.44,-395.65"
       style="fill:#c4e676;fill-opacity:1;fill-rule:nonzero;stroke:none"
       id="path76"
       inkscape:connector-curvature="0" /><path
       d="m 2590.27,3173.17 c -142.48,-50.44 -326.66,173.14 -386.72,286.77 -76.56,144.72 -119.82,326.46 -116.5,493.84 3.91,183.79 87.7,533.31 292.38,383.99 193.95,-141.41 345.71,-350.39 379.4,-599.71 18.55,-139.4 -9.08,-507.96 -168.56,-564.89"
       style="fill:#3d8a3d;fill-opacity:1;fill-rule:nonzero;stroke:none"
       id="path78"
       inkscape:connector-curvature="0" /><path
       d="m 2541.93,3297.73 c -103.32,-15.82 -310.05,155.13 -351.95,234.57 -53.42,101.17 -71.58,182.52 -68.85,299.46 2.64,128.67 60.26,354.06 189.85,365.04 101.56,8.89 190.43,-52.15 256.65,-129.29 94.71,-110.31 146.48,-255.38 150,-405.86 2.43,-102.84 -58.7,-346.1 -175.7,-363.92"
       style="fill:#c4e676;fill-opacity:1;fill-rule:nonzero;stroke:none"
       id="path80"
       inkscape:connector-curvature="0" /><path
       d="m 3203.46,2746.7 c 122.46,-64.25 144.04,-106.59 295.9,-53.27 86.43,30.33 255.85,70.51 320.41,126.76 78.22,68.31 88.57,215.87 87.5,320.46 -1.66,166.75 -58.21,216.8 -224.03,257.08 -356.15,86.38 -888.28,151.9 -1165.82,-147.8 -100.38,-108.35 -289.54,-312.01 -182.22,-471.39 102.84,-152.1 275.68,-30.91 403.41,7.37 156.16,46.68 317,38.68 464.85,-39.21"
       style="fill:#7bcb34;fill-opacity:1;fill-rule:nonzero;stroke:none"
       id="path82"
       inkscape:connector-curvature="0" /><path
       d="m 3645.36,3046.7 c -55.77,-139.06 -213.57,-206.54 -352.65,-150.63 -139.16,55.57 -206.33,213.38 -150.78,352.54 55.86,138.87 213.48,206.54 352.74,150.73 139.06,-55.96 206.35,-213.43 150.69,-352.64"
       style="fill:#ee292c;fill-opacity:1;fill-rule:nonzero;stroke:none"
       id="path84"
       inkscape:connector-curvature="0" /><path
       d="m 3202.2,3281.13 c 7.7,6.39 24.5,10.59 33.29,0.93 13.28,-14.95 -4.29,-20.32 -13.97,-29.11 -22.46,-20.21 -4.68,-45.36 -19.32,-65.57 -17.2,-23.49 -36.82,0.24 -36.34,21.87 0.88,21.19 19.73,58.79 36.34,71.88"
       style="fill:#ffffff;fill-opacity:1;fill-rule:nonzero;stroke:none"
       id="path86"
       inkscape:connector-curvature="0" /><path
       d="m 3239.88,3315.7 c 3.82,9.32 20.91,10.06 29.59,7.23 13.98,-4.4 8.89,-21.54 -0.49,-28.18 -11.62,-7.86 -33.69,6.3 -29.1,20.95"
       style="fill:#ffffff;fill-opacity:1;fill-rule:nonzero;stroke:none"
       id="path88"
       inkscape:connector-curvature="0" /><path
       d="m 3572.3,3272.24 c -16.01,50.39 -43.55,71.78 -81.44,83.84 44.53,22.51 105.27,43.55 105.27,43.55 -59.47,30.91 -115.33,2.84 -147.75,-18.65 -8.59,38.09 -41.7,101.71 -106.15,120.41 0,0 31.65,-62.11 48.15,-109.03 -35.56,17.38 -72.67,25.78 -119.15,0.63 0,0 60.16,-13.52 105.18,-35.69 -37.5,-6.84 -61.43,-27.25 -83.7,-71.19 29.01,12.4 57.52,24.41 88.09,32.66 23.93,6.74 59.28,16.51 83.9,9.33 25,-7.08 48.82,-22.07 71.37,-34.42 5.97,-3.27 33.99,-14.6 36.23,-21.44"
       style="fill:#3d8a3d;fill-opacity:1;fill-rule:nonzero;stroke:none"
       id="path90"
       inkscape:connector-curvature="0" /><path
       d="m 3202.2,3321.17 c -55.97,-139.07 -213.59,-206.64 -352.45,-150.78 -139.36,55.76 -206.64,213.62 -150.79,352.54 55.67,138.91 213.29,206.59 352.54,150.63 138.77,-55.62 206.16,-213.43 150.7,-352.39"
       style="fill:#ee292c;fill-opacity:1;fill-rule:nonzero;stroke:none"
       id="path92"
       inkscape:connector-curvature="0" /><path
       d="m 2758.83,3555.54 c 8.4,6.25 24.8,10.7 33.49,0.88 13.29,-14.99 -4.39,-20.36 -14.06,-29.1 -22.56,-20.22 -4.59,-45.31 -19.13,-65.58 -17.68,-23.68 -37.02,0.15 -36.24,21.83 0.2,21.39 19.24,59.03 35.94,71.97"
       style="fill:#ffffff;fill-opacity:1;fill-rule:nonzero;stroke:none"
       id="path94"
       inkscape:connector-curvature="0" /><path
       d="m 2796.72,3590.11 c 3.91,9.23 20.91,10.16 29.78,7.33 13.48,-4.74 8.79,-21.88 -0.87,-28.37 -11.82,-8.11 -33.5,6.35 -28.91,21.04"
       style="fill:#ffffff;fill-opacity:1;fill-rule:nonzero;stroke:none"
       id="path96"
       inkscape:connector-curvature="0" /><path
       d="m 3129.34,3546.7 c -16.21,50.39 -43.85,71.68 -81.55,83.6 44.44,22.65 105.09,43.7 105.09,43.7 -59.48,30.76 -115.05,2.93 -147.67,-18.51 -8.69,37.94 -41.99,101.42 -106.15,120.27 0,0 31.74,-61.97 47.85,-109.13 -35.45,17.57 -72.36,26.07 -118.55,0.48 0,0 60.06,-13.42 104.69,-35.44 -37.5,-6.94 -61.33,-27.3 -83.3,-71.1 28.32,12.31 57.42,24.37 87.89,32.47 23.92,6.79 59.18,16.46 83.99,9.47 24.7,-7.17 48.82,-21.82 71.28,-34.42 5.76,-3.47 34.18,-14.35 36.43,-21.39"
       style="fill:#3d8a3d;fill-opacity:1;fill-rule:nonzero;stroke:none"
       id="path98"
       inkscape:connector-curvature="0" /><path
       d="m 2775.04,3145.73 c 22.17,-148.34 -79.59,-286.43 -228.13,-308.69 -147.85,-22.32 -286.03,79.59 -308.3,227.63 -22.16,148.2 79.59,286.33 227.64,308.55 148.14,22.31 286.13,-79.54 308.79,-227.49"
       style="fill:#ee292c;fill-opacity:1;fill-rule:nonzero;stroke:none"
       id="path100"
       inkscape:connector-curvature="0" /><path
       d="m 2273.67,3123.17 c 3.81,9.67 16.12,21.87 28.62,17.77 19.34,-6.2 6.64,-19.58 2.44,-32.22 -9.18,-28.81 19.23,-41.36 16.9,-66.17 -3.23,-29.24 -32.33,-18.5 -42.49,0.39 -10.25,18.71 -12.79,60.65 -5.47,80.23"
       style="fill:#ffffff;fill-opacity:1;fill-rule:nonzero;stroke:none"
       id="path102"
       inkscape:connector-curvature="0" /><path
       d="m 2289.2,3172.34 c -1.66,9.91 12.79,19.34 21.59,21.24 14.35,3.03 18.64,-14.36 13.76,-24.71 -6.05,-12.79 -32.13,-11.52 -35.35,3.47"
       style="fill:#ffffff;fill-opacity:1;fill-rule:nonzero;stroke:none"
       id="path104"
       inkscape:connector-curvature="0" /><path
       d="m 2597.5,3303.1 c -39.16,35.4 -73.73,39.84 -112.5,30.96 26.95,42.04 68.75,90.96 68.75,90.96 -66.99,-3.51 -100.87,-55.85 -117.96,-90.96 -26.66,28.42 -87.5,66.45 -152.45,50.05 0,0 58.7,-37.36 96.58,-69.78 -39.35,-2.73 -75.38,-14.21 -102.93,-59.57 0,0 58.6,18.9 108.4,22.51 -28.71,-25.1 -38.87,-54.69 -36.03,-103.76 18.65,25.15 37.3,50.25 59.57,72.66 17.38,18.16 42.57,44.24 67.87,50.49 24.7,6.44 53.02,6.1 78.71,6.44 6.94,0.2 36.53,4.88 41.99,0"
       style="fill:#3d8a3d;fill-opacity:1;fill-rule:nonzero;stroke:none"
       id="path106"
       inkscape:connector-curvature="0" /><path
       d="m 4352.48,3141.43 c -70.12,-279.05 -309.77,-459.23 -536.12,-402.73 -225.98,56.59 -352.65,328.56 -283.02,607.61 69.63,278.52 309.47,459.04 535.74,402.35 226.17,-56.4 352.93,-328.32 283.4,-607.23"
       style="fill:#ffffff;fill-opacity:1;fill-rule:nonzero;stroke:none"
       id="path108"
       inkscape:connector-curvature="0" /><path
       d="m 4248.67,3162.38 c -38.08,-174.56 -207.71,-285.84 -378.12,-248.49 -171,37.4 -278.62,209.13 -240.63,383.84 38.48,174.56 207.72,285.69 378.71,248.44 170.71,-37.21 278.13,-209.23 240.04,-383.79"
       style="fill:#f8a30d;fill-opacity:1;fill-rule:nonzero;stroke:none"
       id="path110"
       inkscape:connector-curvature="0" /><path
       d="m 4801.06,3138.33 c -25.83,-66.11 -87.68,-130.43 -179.36,-189.14 -137.45,-88.12 -341.36,-163.56 -587.45,-216.75 -246.11,-53.23 -534.44,-84.31 -841.05,-84.31 -397.71,-0.01 -766.97,54.58 -1053.15,141.8 -143.09,43.59 -265.4,95.36 -360.01,152.35 -94.64,56.96 -161.4,119.21 -193.93,182.89 l -13.93,-7.13 c 34.7,-67.66 103.71,-131.25 199.79,-189.16 144.18,-86.81 349.73,-160.77 594.16,-213.2 244.42,-52.4 527.71,-83.19 827.07,-83.19 410.25,0.01 787.86,55.41 1076.82,145.27 144.49,44.94 266.84,98.48 360.11,158.26 93.25,59.8 157.7,125.82 185.5,196.6 l -14.57,5.71"
       style="fill:#918f90;fill-opacity:1;fill-rule:nonzero;stroke:none"
       id="path112"
       inkscape:connector-curvature="0" /><path
       d="m 1076.31,3887.87 c 58.69,-241.02 -33.99,-470.36 -206.54,-512.41 -172.657,-42.09 -360.059,119.29 -418.75,360.26 -58.79,241.06 33.691,470.46 206.347,512.5 172.754,41.99 360.343,-119.29 418.943,-360.35"
       style="fill:#8e9fa7;fill-opacity:1;fill-rule:nonzero;stroke:none"
       id="path114"
       inkscape:connector-curvature="0" /><path
       d="m 1238.13,2275.32 c -55.18,156.74 -217.49,682.91 -255.958,844.58 -19.434,82.27 -44.629,232.96 -56.836,316.5 -7.129,50.83 -10.156,55.47 -79.883,38.97 -69.531,-17.34 -70.019,-22.81 -53.223,-71.44 27.735,-79.74 74.708,-225 95.02,-307.18 40.137,-161.28 137.79,-703.02 160.74,-867.72 14.55,-104.59 66.8,-369.09 186.52,-352.58 113.67,40.38 38.67,299.21 3.62,398.87"
       style="fill:#8e9fa7;fill-opacity:1;fill-rule:nonzero;stroke:none"
       id="path116"
       inkscape:connector-curvature="0" /><path
       d="m 5242.42,2215.41 c 18.56,165.13 101.87,709.42 137.6,871.72 18.16,82.62 61.13,229.15 86.72,309.57 15.62,48.98 14.84,54.5 -55.08,69.93 -70.12,14.69 -72.95,10.01 -78.91,-41.02 -9.86,-83.93 -30.86,-235.11 -48.24,-317.92 -34.08,-162.65 -182.22,-692.97 -233.2,-851.12 -32.42,-100.53 -100.49,-361.47 14.26,-398.68 120.11,-13.18 165.33,252.59 176.85,357.52"
       style="fill:#8e9fa7;fill-opacity:1;fill-rule:nonzero;stroke:none"
       id="path118"
       inkscape:connector-curvature="0" /><path
       d="m 5780.8,3741.43 c 47.08,218.36 16.99,492.58 -70.21,462.84 -13.19,-4.68 -17.09,-42.97 -19.54,-53.66 -12.5,-56.25 -20.99,-113.62 -37.79,-168.8 -5.76,-19.09 -12.4,-42.48 -26.46,-57.37 -12.01,-12.75 -22.46,-9.47 -37.99,-5.13 -21.97,6.3 -31.06,13.58 -27.35,37.55 2.74,16.55 6.94,32.96 10.84,49.22 16.02,67.68 32.04,135.35 46.68,203.27 7.52,35.11 -4.19,51.42 -22.35,59.03 -3.92,1.27 -7.92,2.45 -11.34,3.23 -3.9,0.73 -7.81,1.32 -12,1.46 -19.54,0.78 -36.34,-9.37 -44.64,-44.19 -3.61,-14.79 -6.83,-29.54 -10.25,-44.19 -14.16,-61.72 -25.69,-123.78 -37.79,-185.84 -2.54,-14.3 -4.2,-39.6 -16.9,-48.58 -33.3,-22.85 -62.99,17.19 -63.76,46.68 -1.18,53.51 16.01,108.4 28.41,159.96 2.84,11.28 31.15,98.05 14.45,104.88 -97.95,39.89 -207.02,-174.66 -254.1,-392.97 -60.25,-280.51 44.14,-407.27 190.24,-498.78 l -0.2,-1.36 c 3.91,-0.78 7.81,-1.17 11.91,-1.86 3.72,-0.98 7.43,-2.24 11.33,-3.12 l 0.3,1.31 c 190.42,41.8 318.16,95.85 378.51,376.42"
       style="fill:#8e9fa7;fill-opacity:1;fill-rule:nonzero;stroke:none"
       id="path120"
       inkscape:connector-curvature="0" /></g></svg>